<svg width="2000px" height="623px"
 viewBox="0.00 0.00 1268.92 394.79" xmlns="http://www.w3.org/2000/svg" xmlns:xlink="http://www.w3.org/1999/xlink">
<g id="graph0" class="graph" transform="scale(1.0 1.0) rotate(0) translate(4 390.79)">
<title>ContextMapGraph</title>
<polygon fill="white" stroke="transparent" points="-4,4 -4,-390.79 1264.92,-390.79 1264.92,4 -4,4"/>
<!-- GestionCajaContext -->
<g id="node1" class="node">
<title>GestionCajaContext</title>
<polygon fill="none" stroke="black" stroke-width="2" points="849.63,-33.62 853.04,-36.29 856.07,-38.98 858.68,-41.69 860.87,-44.41 862.63,-47.11 863.95,-49.8 864.82,-52.46 865.23,-55.09 865.18,-57.67 864.67,-60.2 863.69,-62.66 862.25,-65.05 860.35,-67.37 857.99,-69.59 855.18,-71.73 851.93,-73.77 848.25,-75.71 844.15,-77.55 839.64,-79.27 834.75,-80.89 829.48,-82.38 823.85,-83.77 817.89,-85.03 811.61,-86.18 805.04,-87.21 798.2,-88.12 791.12,-88.92 783.81,-89.6 776.31,-90.16 768.65,-90.62 760.84,-90.97 752.92,-91.21 744.91,-91.34 736.84,-91.38 728.74,-91.32 720.63,-91.16 712.55,-90.91 704.51,-90.57 696.54,-90.15 688.67,-89.64 680.92,-89.06 673.32,-88.39 665.88,-87.66 658.63,-86.85 651.58,-85.97 644.76,-85.02 638.19,-84.01 631.87,-82.93 625.83,-81.79 620.07,-80.59 614.62,-79.33 609.47,-78 604.65,-76.62 600.16,-75.19 596,-73.69 592.19,-72.14 588.73,-70.54 585.62,-68.88 582.86,-67.17 580.46,-65.4 578.41,-63.59 576.73,-61.73 575.4,-59.81 574.42,-57.86 573.8,-55.86 573.53,-53.82 573.6,-51.74 574.02,-49.62 574.77,-47.48 575.86,-45.31 577.27,-43.12 579,-40.91 581.05,-38.68 583.41,-36.45 586.07,-34.23 589.03,-32 592.27,-29.79 595.8,-27.6 599.61,-25.44 603.68,-23.32 608.01,-21.23 612.59,-19.2 617.41,-17.23 622.47,-15.33 627.76,-13.5 633.26,-11.76 638.97,-10.11 644.87,-8.56 650.97,-7.12 657.23,-5.79 663.67,-4.59 670.25,-3.52 676.97,-2.59 683.83,-1.8 690.79,-1.15 697.85,-0.66 704.99,-0.33 712.21,-0.15 719.47,-0.14 726.77,-0.29 734.08,-0.61 741.4,-1.09 748.69,-1.73 755.94,-2.54 763.13,-3.51 770.24,-4.64 777.25,-5.93 784.14,-7.36 790.89,-8.94 797.47,-10.65 803.87,-12.5 810.05,-14.47 816.01,-16.55 821.72,-18.75 827.16,-21.04 832.31,-23.42 837.15,-25.88 841.66,-28.4 845.83,-30.99 849.63,-33.62"/>
<text text-anchor="middle" x="713.99" y="-45.06" font-family="sans-serif" font-size="16.00">GestionCajaContext</text>
</g>
<!-- GestionMenuContext -->
<g id="node2" class="node">
<title>GestionMenuContext</title>
<polygon fill="none" stroke="black" stroke-width="2" points="287.08,-169.76 292.9,-172.08 298.35,-174.45 303.4,-176.86 308.03,-179.31 312.22,-181.79 315.94,-184.29 319.19,-186.8 321.95,-189.31 324.2,-191.81 325.94,-194.29 327.15,-196.75 327.83,-199.18 327.97,-201.56 327.58,-203.91 326.66,-206.19 325.21,-208.42 323.23,-210.59 320.73,-212.68 317.73,-214.71 314.23,-216.65 310.26,-218.52 305.82,-220.29 300.94,-221.99 295.64,-223.59 289.93,-225.1 283.86,-226.52 277.43,-227.84 270.67,-229.08 263.62,-230.21 256.3,-231.26 248.75,-232.2 240.98,-233.06 233.03,-233.82 224.93,-234.49 216.71,-235.06 208.4,-235.55 200.03,-235.94 191.63,-236.24 183.22,-236.46 174.84,-236.59 166.51,-236.63 158.26,-236.58 150.1,-236.46 142.07,-236.24 134.19,-235.94 126.47,-235.56 118.94,-235.1 111.62,-234.55 104.51,-233.92 97.64,-233.21 91.02,-232.42 84.66,-231.55 78.57,-230.59 72.76,-229.55 67.24,-228.43 62.02,-227.23 57.1,-225.95 52.48,-224.59 48.18,-223.15 44.18,-221.63 40.51,-220.04 37.15,-218.37 34.1,-216.62 31.37,-214.81 28.96,-212.92 26.87,-210.97 25.09,-208.95 23.62,-206.88 22.47,-204.74 21.63,-202.56 21.1,-200.33 20.87,-198.05 20.95,-195.74 21.34,-193.4 22.04,-191.03 23.04,-188.65 24.34,-186.26 25.94,-183.87 27.85,-181.48 30.05,-179.1 32.56,-176.75 35.36,-174.42 38.47,-172.14 41.87,-169.9 45.56,-167.71 49.56,-165.6 53.84,-163.55 58.41,-161.59 63.26,-159.72 68.4,-157.95 73.81,-156.28 79.49,-154.73 85.43,-153.3 91.63,-152 98.07,-150.83 104.75,-149.8 111.65,-148.91 118.76,-148.18 126.07,-147.59 133.56,-147.17 141.21,-146.9 149.01,-146.79 156.93,-146.84 164.96,-147.06 173.08,-147.43 181.25,-147.96 189.46,-148.65 197.68,-149.5 205.88,-150.5 214.04,-151.64 222.13,-152.92 230.13,-154.34 237.99,-155.89 245.7,-157.57 253.23,-159.36 260.54,-161.25 267.61,-163.25 274.4,-165.34 280.9,-167.52 287.08,-169.76"/>
<text text-anchor="middle" x="163.99" y="-191.35" font-family="sans-serif" font-size="16.00">GestionMenuContext</text>
</g>
<!-- GestionReclamosContext -->
<g id="node3" class="node">
<title>GestionReclamosContext</title>
<polygon fill="none" stroke="black" stroke-width="2" points="1193.81,-80.27 1185.79,-82.31 1177.48,-84.25 1168.92,-86.08 1160.14,-87.79 1151.16,-89.38 1142.03,-90.85 1132.78,-92.17 1123.44,-93.36 1114.04,-94.4 1104.61,-95.29 1095.18,-96.02 1085.79,-96.59 1076.45,-97.01 1067.19,-97.27 1058.05,-97.36 1049.04,-97.29 1040.19,-97.06 1031.51,-96.67 1023.04,-96.12 1014.78,-95.42 1006.75,-94.57 998.97,-93.58 991.45,-92.44 984.21,-91.16 977.25,-89.76 970.58,-88.24 964.22,-86.6 958.17,-84.85 952.44,-83 947.02,-81.06 941.94,-79.03 937.19,-76.93 932.77,-74.77 928.69,-72.54 924.95,-70.27 921.55,-67.96 918.49,-65.61 915.78,-63.24 913.41,-60.86 911.4,-58.47 909.73,-56.08 908.41,-53.7 907.45,-51.34 906.83,-49 906.58,-46.68 906.68,-44.4 907.14,-42.17 907.96,-39.97 909.14,-37.83 910.69,-35.75 912.61,-33.72 914.89,-31.75 917.54,-29.85 920.56,-28.02 923.96,-26.26 927.72,-24.57 931.85,-22.95 936.36,-21.41 941.23,-19.95 946.46,-18.56 952.05,-17.26 958,-16.03 964.29,-14.88 970.93,-13.81 977.89,-12.82 985.17,-11.91 992.76,-11.09 1000.64,-10.34 1008.8,-9.67 1017.22,-9.09 1025.88,-8.59 1034.76,-8.17 1043.84,-7.83 1053.1,-7.57 1062.5,-7.4 1072.03,-7.32 1081.64,-7.32 1091.33,-7.4 1101.05,-7.57 1110.77,-7.84 1120.46,-8.19 1130.08,-8.63 1139.61,-9.17 1149,-9.79 1158.23,-10.51 1167.26,-11.33 1176.05,-12.24 1184.57,-13.25 1192.79,-14.35 1200.67,-15.55 1208.18,-16.84 1215.3,-18.23 1221.99,-19.72 1228.22,-21.3 1233.97,-22.96 1239.21,-24.72 1243.93,-26.57 1248.1,-28.5 1251.71,-30.51 1254.74,-32.59 1257.17,-34.75 1259,-36.98 1260.23,-39.26 1260.84,-41.6 1260.84,-44 1260.22,-46.43 1258.99,-48.9 1257.16,-51.39 1254.74,-53.91 1251.73,-56.43 1248.15,-58.96 1244.02,-61.48 1239.36,-63.99 1234.19,-66.46 1228.53,-68.91 1222.4,-71.31 1215.84,-73.65 1208.87,-75.94 1201.51,-78.14 1193.81,-80.27"/>
<text text-anchor="middle" x="1071.99" y="-45.06" font-family="sans-serif" font-size="16.00">GestionReclamosContext</text>
</g>
<!-- GestionReservasContext -->
<g id="node4" class="node">
<title>GestionReservasContext</title>
<polygon fill="none" stroke="black" stroke-width="2" points="500.44,-24.07 506.9,-26.41 512.92,-28.81 518.49,-31.26 523.58,-33.73 528.16,-36.24 532.22,-38.76 535.74,-41.29 538.69,-43.81 541.08,-46.33 542.88,-48.82 544.09,-51.29 544.69,-53.72 544.7,-56.12 544.1,-58.46 542.89,-60.74 541.09,-62.97 538.69,-65.13 535.72,-67.21 532.17,-69.22 528.07,-71.15 523.43,-73 518.27,-74.76 512.62,-76.42 506.49,-78 499.91,-79.49 492.92,-80.88 485.53,-82.17 477.78,-83.37 469.7,-84.47 461.32,-85.48 452.67,-86.39 443.8,-87.21 434.72,-87.93 425.48,-88.55 416.11,-89.09 406.65,-89.53 397.12,-89.88 387.56,-90.15 378.01,-90.32 368.48,-90.4 359.02,-90.4 349.66,-90.32 340.41,-90.15 331.31,-89.89 322.38,-89.55 313.65,-89.13 305.13,-88.63 296.85,-88.05 288.83,-87.38 281.08,-86.63 273.62,-85.81 266.46,-84.9 259.61,-83.91 253.09,-82.84 246.9,-81.69 241.05,-80.46 235.55,-79.16 230.4,-77.77 225.62,-76.31 221.19,-74.77 217.12,-73.15 213.42,-71.46 210.08,-69.7 207.11,-67.87 204.51,-65.97 202.26,-64 200.38,-61.97 198.86,-59.89 197.69,-57.75 196.88,-55.55 196.43,-53.32 196.33,-51.04 196.58,-48.72 197.19,-46.38 198.13,-44.02 199.43,-41.64 201.07,-39.25 203.05,-36.86 205.38,-34.48 208.05,-32.11 211.05,-29.76 214.39,-27.45 218.07,-25.18 222.09,-22.95 226.43,-20.79 231.1,-18.69 236.1,-16.66 241.43,-14.72 247.06,-12.87 253.02,-11.12 259.27,-9.48 265.83,-7.96 272.67,-6.56 279.79,-5.28 287.19,-4.14 294.84,-3.15 302.73,-2.3 310.85,-1.6 319.19,-1.05 327.72,-0.66 336.42,-0.43 345.28,-0.36 354.27,-0.45 363.37,-0.71 372.56,-1.12 381.8,-1.7 391.07,-2.43 400.34,-3.32 409.59,-4.36 418.77,-5.55 427.87,-6.87 436.84,-8.34 445.67,-9.93 454.31,-11.64 462.73,-13.47 470.9,-15.41 478.78,-17.45 486.36,-19.58 493.59,-21.78 500.44,-24.07"/>
<text text-anchor="middle" x="358.99" y="-45.06" font-family="sans-serif" font-size="16.00">GestionReservasContext</text>
</g>
<!-- GestionUsuariosContext -->
<g id="node5" class="node">
<title>GestionUsuariosContext</title>
<polygon fill="none" stroke="black" stroke-width="2" points="194.64,-337.66 194.99,-334.78 195.8,-331.93 197.07,-329.11 198.81,-326.34 201.01,-323.63 203.65,-320.98 206.74,-318.42 210.27,-315.94 214.23,-313.55 218.6,-311.28 223.38,-309.12 228.55,-307.07 234.1,-305.16 240.01,-303.38 246.27,-301.73 252.87,-300.23 259.77,-298.88 266.97,-297.67 274.44,-296.61 282.16,-295.7 290.11,-294.94 298.27,-294.33 306.61,-293.86 315.12,-293.55 323.76,-293.38 332.52,-293.35 341.37,-293.45 350.27,-293.69 359.22,-294.06 368.18,-294.55 377.13,-295.16 386.03,-295.88 394.88,-296.7 403.64,-297.63 412.28,-298.65 420.79,-299.76 429.13,-300.95 437.29,-302.22 445.25,-303.56 452.97,-304.97 460.44,-306.43 467.65,-307.95 474.55,-309.51 481.15,-311.12 487.42,-312.78 493.35,-314.46 498.91,-316.18 504.09,-317.93 508.89,-319.7 513.28,-321.5 517.25,-323.32 520.8,-325.15 523.92,-327 526.59,-328.87 528.81,-330.74 530.58,-332.63 531.89,-334.53 532.74,-336.43 533.13,-338.34 533.05,-340.26 532.51,-342.18 531.51,-344.11 530.05,-346.03 528.15,-347.96 525.79,-349.89 523,-351.81 519.78,-353.72 516.14,-355.63 512.08,-357.52 507.63,-359.4 502.79,-361.26 497.58,-363.1 492.01,-364.91 486.09,-366.69 479.85,-368.44 473.3,-370.15 466.46,-371.8 459.34,-373.41 451.97,-374.96 444.36,-376.44 436.54,-377.85 428.53,-379.19 420.34,-380.44 412.01,-381.6 403.54,-382.66 394.97,-383.62 386.32,-384.46 377.61,-385.19 368.86,-385.8 360.1,-386.28 351.34,-386.63 342.62,-386.84 333.96,-386.9 325.37,-386.82 316.89,-386.58 308.53,-386.2 300.31,-385.66 292.27,-384.96 284.41,-384.11 276.77,-383.11 269.35,-381.94 262.19,-380.63 255.3,-379.16 248.71,-377.55 242.42,-375.8 236.45,-373.91 230.83,-371.89 225.56,-369.74 220.67,-367.48 216.17,-365.11 212.06,-362.64 208.36,-360.08 205.09,-357.45 202.25,-354.74 199.84,-351.97 197.89,-349.16 196.38,-346.3 195.34,-343.43 194.76,-340.54 194.64,-337.66"/>
<text text-anchor="middle" x="363.99" y="-335.89" font-family="sans-serif" font-size="16.00">GestionUsuariosContext</text>
</g>
<!-- GestionUsuariosContext&#45;&gt;GestionMenuContext -->
<g id="edge1" class="edge">
<title>GestionUsuariosContext&#45;&gt;GestionMenuContext</title>
<path fill="none" stroke="black" stroke-width="2" d="M301.26,-293.98C274.8,-275.12 244.27,-253.36 218.73,-235.16"/>
<text text-anchor="middle" x="304.49" y="-264.98" font-family="sans-serif" font-size="12.00">Partnership</text>
</g>
<!-- GestionUsuariosContext&#45;&gt;GestionReservasContext -->
<g id="edge3" class="edge">
<title>GestionUsuariosContext&#45;&gt;GestionReservasContext</title>
<path fill="none" stroke="black" stroke-width="2" d="M363.22,-294.19C362.26,-238.65 360.63,-144.43 359.7,-90.67"/>
<text text-anchor="middle" x="438.49" y="-192.05" font-family="sans-serif" font-size="12.00"> &#160;&#160;&#160;&#160;&#160;&#160;&#160;&#160;&#160;&#160;&#160;&#160;&#160;&#160;&#160;&#160;&#160;&#160;&#160;&#160;&#160;&#160;&#160;&#160;&#160;&#160;&#160;&#160;&#160;&#160;&#160;&#160;&#160;&#160;&#160;&#160;&#160;&#160;&#160;</text>
<polygon fill="white" stroke="transparent" points="336.7,-80.67 336.7,-99.67 352.7,-99.67 352.7,-80.67 336.7,-80.67"/>
<polyline fill="none" stroke="black" points="352.7,-80.67 352.7,-99.67 "/>
<text text-anchor="start" x="339.7" y="-87.07" font-family="sans-serif" font-size="12.00">D</text>
<polygon fill="white" stroke="transparent" points="352.7,-80.67 352.7,-99.67 382.7,-99.67 382.7,-80.67 352.7,-80.67"/>
<polygon fill="none" stroke="black" points="352.7,-80.67 352.7,-99.67 382.7,-99.67 382.7,-80.67 352.7,-80.67"/>
<text text-anchor="start" x="355.7" y="-87.07" font-family="sans-serif" font-size="12.00">ACL</text>
<polygon fill="white" stroke="transparent" points="328.22,-284.19 328.22,-303.19 344.22,-303.19 344.22,-284.19 328.22,-284.19"/>
<polyline fill="none" stroke="black" points="344.22,-284.19 344.22,-303.19 "/>
<text text-anchor="start" x="331.22" y="-290.59" font-family="sans-serif" font-size="12.00">U</text>
<polygon fill="white" stroke="transparent" points="344.22,-284.19 344.22,-303.19 399.22,-303.19 399.22,-284.19 344.22,-284.19"/>
<polygon fill="none" stroke="black" points="344.22,-284.19 344.22,-303.19 399.22,-303.19 399.22,-284.19 344.22,-284.19"/>
<text text-anchor="start" x="347.22" y="-290.59" font-family="sans-serif" font-size="12.00">OHS, PL</text>
</g>
<!-- GestionVentasContext -->
<g id="node6" class="node">
<title>GestionVentasContext</title>
<polygon fill="none" stroke="black" stroke-width="2" points="666.52,-153.05 676.37,-152.2 686.29,-151.48 696.23,-150.88 706.16,-150.4 716.02,-150.06 725.8,-149.85 735.44,-149.77 744.92,-149.83 754.19,-150.03 763.24,-150.36 772.02,-150.82 780.51,-151.43 788.69,-152.16 796.52,-153.03 804,-154.03 811.09,-155.16 817.79,-156.41 824.07,-157.78 829.93,-159.26 835.36,-160.85 840.35,-162.55 844.89,-164.35 848.99,-166.25 852.63,-168.22 855.84,-170.28 858.6,-172.42 860.92,-174.62 862.81,-176.87 864.28,-179.18 865.33,-181.53 865.98,-183.92 866.24,-186.33 866.12,-188.76 865.64,-191.21 864.8,-193.65 863.61,-196.1 862.1,-198.53 860.27,-200.93 858.15,-203.31 855.73,-205.66 853.03,-207.96 850.07,-210.22 846.85,-212.42 843.39,-214.55 839.69,-216.62 835.76,-218.62 831.62,-220.54 827.26,-222.38 822.7,-224.12 817.94,-225.78 812.98,-227.34 807.84,-228.81 802.51,-230.17 797,-231.43 791.31,-232.58 785.45,-233.63 779.41,-234.56 773.21,-235.39 766.84,-236.1 760.32,-236.71 753.64,-237.2 746.81,-237.58 739.83,-237.85 732.72,-238 725.48,-238.05 718.12,-237.99 710.65,-237.82 703.08,-237.55 695.43,-237.17 687.7,-236.69 679.92,-236.11 672.11,-235.43 664.27,-234.66 656.43,-233.79 648.62,-232.83 640.85,-231.78 633.15,-230.64 625.55,-229.42 618.07,-228.12 610.73,-226.74 603.57,-225.29 596.61,-223.76 589.89,-222.16 583.43,-220.5 577.26,-218.77 571.41,-216.98 565.92,-215.14 560.8,-213.25 556.08,-211.3 551.8,-209.31 547.97,-207.28 544.62,-205.22 541.78,-203.12 539.45,-200.99 537.67,-198.84 536.44,-196.67 535.78,-194.48 535.69,-192.29 536.2,-190.09 537.3,-187.89 538.99,-185.7 541.28,-183.52 544.16,-181.36 547.62,-179.22 551.66,-177.12 556.26,-175.04 561.41,-173.01 567.08,-171.03 573.27,-169.1 579.94,-167.23 587.07,-165.42 594.62,-163.68 602.58,-162.03 610.9,-160.45 619.56,-158.97 628.51,-157.58 637.72,-156.28 647.15,-155.1 656.76,-154.02 666.52,-153.05"/>
<text text-anchor="middle" x="710.99" y="-191.35" font-family="sans-serif" font-size="16.00">GestionVentasContext</text>
</g>
<!-- GestionUsuariosContext&#45;&gt;GestionVentasContext -->
<g id="edge2" class="edge">
<title>GestionUsuariosContext&#45;&gt;GestionVentasContext</title>
<path fill="none" stroke="black" stroke-width="2" d="M448.43,-304C503.2,-281.5 574.21,-252.34 628.57,-230.01"/>
<text text-anchor="middle" x="623.49" y="-264.98" font-family="sans-serif" font-size="12.00"> &#160;&#160;&#160;&#160;&#160;&#160;&#160;&#160;&#160;&#160;&#160;&#160;&#160;&#160;&#160;&#160;&#160;&#160;&#160;&#160;&#160;&#160;&#160;&#160;&#160;&#160;&#160;&#160;&#160;&#160;&#160;&#160;&#160;&#160;&#160;&#160;&#160;&#160;&#160;</text>
<polygon fill="white" stroke="transparent" points="609.57,-220.01 609.57,-239.01 625.57,-239.01 625.57,-220.01 609.57,-220.01"/>
<polyline fill="none" stroke="black" points="625.57,-220.01 625.57,-239.01 "/>
<text text-anchor="start" x="612.57" y="-226.41" font-family="sans-serif" font-size="12.00">D</text>
<polygon fill="white" stroke="transparent" points="625.57,-220.01 625.57,-239.01 647.57,-239.01 647.57,-220.01 625.57,-220.01"/>
<polygon fill="none" stroke="black" points="625.57,-220.01 625.57,-239.01 647.57,-239.01 647.57,-220.01 625.57,-220.01"/>
<text text-anchor="start" x="628.57" y="-226.41" font-family="sans-serif" font-size="12.00">CF</text>
<polygon fill="white" stroke="transparent" points="413.43,-294 413.43,-313 429.43,-313 429.43,-294 413.43,-294"/>
<polyline fill="none" stroke="black" points="429.43,-294 429.43,-313 "/>
<text text-anchor="start" x="416.43" y="-300.4" font-family="sans-serif" font-size="12.00">U</text>
<polygon fill="white" stroke="transparent" points="429.43,-294 429.43,-313 484.43,-313 484.43,-294 429.43,-294"/>
<polygon fill="none" stroke="black" points="429.43,-294 429.43,-313 484.43,-313 484.43,-294 429.43,-294"/>
<text text-anchor="start" x="432.43" y="-300.4" font-family="sans-serif" font-size="12.00">OHS, PL</text>
</g>
<!-- GestionVentasContext&#45;&gt;GestionCajaContext -->
<g id="edge4" class="edge">
<title>GestionVentasContext&#45;&gt;GestionCajaContext</title>
<path fill="none" stroke="black" stroke-width="2" d="M711.91,-150.07C712.3,-131.34 712.75,-109.62 713.13,-91.2"/>
<text text-anchor="middle" x="754.99" y="-119.12" font-family="sans-serif" font-size="12.00">Shared Kernel</text>
</g>
<!-- GestionVentasContext&#45;&gt;GestionReclamosContext -->
<g id="edge5" class="edge">
<title>GestionVentasContext&#45;&gt;GestionReclamosContext</title>
<path fill="none" stroke="black" stroke-width="2" d="M809.64,-154.72C860.68,-134.32 922.8,-109.49 973.78,-89.12"/>
<text text-anchor="middle" x="957.99" y="-119.12" font-family="sans-serif" font-size="12.00">Customer/Supplier</text>
<polygon fill="white" stroke="transparent" points="966.78,-80.12 966.78,-97.12 980.78,-97.12 980.78,-80.12 966.78,-80.12"/>
<text text-anchor="start" x="968.78" y="-85.52" font-family="sans-serif" font-size="12.00">D</text>
<polygon fill="white" stroke="transparent" points="802.64,-145.72 802.64,-162.72 816.64,-162.72 816.64,-145.72 802.64,-145.72"/>
<text text-anchor="start" x="804.64" y="-151.12" font-family="sans-serif" font-size="12.00">U</text>
</g>
<!-- GestionVentasContext&#45;&gt;GestionReservasContext -->
<g id="edge6" class="edge">
<title>GestionVentasContext&#45;&gt;GestionReservasContext</title>
<path fill="none" stroke="black" stroke-width="2" d="M623.53,-158.3C570.38,-136.51 502.68,-108.76 449.07,-86.78"/>
<text text-anchor="middle" x="580.49" y="-119.12" font-family="sans-serif" font-size="12.00">Partnership</text>
</g>
</g>
</svg>
